<!-- icon666.com - MILLIONS OF FREE VECTOR ICONS --><svg xmlns="http://www.w3.org/2000/svg" id="Outline" viewBox="0 0 512 512"><path d="M136,416a127.92,127.92,0,0,0,58.592-14.173,87.957,87.957,0,0,0,150.362,7.336A42.394,42.394,0,0,0,368,416c26.467,0,48-25.122,48-56a65.929,65.929,0,0,0-.4-7.2c14.968-9.836,24.4-28.414,24.4-48.8,0-1.059-.035-2.119-.086-3.177C458.581,293.145,472,272.372,472,248a65.621,65.621,0,0,0-.908-10.852C490.186,229.749,504,208.728,504,184c0-30.878-21.532-56-48-56a42.085,42.085,0,0,0-16.738,3.468c13.389-25.177,8.859-51.523,8.609-52.9a8,8,0,0,0-6.879-6.507c-20.15-2.52-39.263,3.776-56.8,18.712-10.837,9.229-20.891,21.6-29.951,36.847.046-46.179-10.379-59.076-12.581-61.278a8,8,0,1,0-11.312,11.314c.085.086,8.021,11.38,7.888,50.762-1.219.171-2.427.387-3.617.663-9.183-15.747-19.411-28.523-30.466-38.019-17.632-15.145-36.86-21.539-57.141-19a8,8,0,0,0-6.879,6.507c-.248,1.361-4.781,27.722,8.626,52.916A42.093,42.093,0,0,0,232,128c-22.312,0-41.115,17.852-46.47,41.955A128.007,128.007,0,1,0,136,416Zm136,16a72,72,0,1,1,72-72A72.081,72.081,0,0,1,272,432Zm33.516-214.569A27.419,27.419,0,0,1,288,224c-17.645,0-32-17.944-32-40s14.355-40,32-40a27.442,27.442,0,0,1,17.513,6.573,63.483,63.483,0,0,0,0,66.858Zm29.071,58.832a31.32,31.32,0,0,1-14.139,10.313,87.466,87.466,0,0,0-33.163-13.244A46.121,46.121,0,0,1,280,248a49.454,49.454,0,0,1,.758-8.638A41.436,41.436,0,0,0,288,240a43.189,43.189,0,0,0,28.046-10.52,45.753,45.753,0,0,0,12.862,7.668A65.621,65.621,0,0,0,328,248,62.86,62.86,0,0,0,334.587,276.263Zm-.462,21.471a48.149,48.149,0,0,0,9.914-8C352.533,298.6,363.734,304,376,304c0,15.667-7.341,29.6-18.266,36.115A87.973,87.973,0,0,0,334.125,297.734Zm48.359-147.165A27.419,27.419,0,0,1,400,144c17.645,0,32,17.944,32,40s-14.355,40-32,40a27.438,27.438,0,0,1-17.513-6.573,63.483,63.483,0,0,0,0-66.858ZM400,240a41.428,41.428,0,0,0,7.242-.638A49.349,49.349,0,0,1,408,248c0,22.056-14.355,40-32,40s-32-17.944-32-40a49.545,49.545,0,0,1,.655-8.019,43.373,43.373,0,0,0,27.3-10.5A43.237,43.237,0,0,0,400,240ZM368,400a26.831,26.831,0,0,1-15.309-4.906A87.494,87.494,0,0,0,360,360c0-1.057-.026-2.109-.063-3.157a44.542,44.542,0,0,0,8.029-4.331A42.514,42.514,0,0,0,392,360a41.821,41.821,0,0,0,7.98-.777c0,.259.02.517.02.777C400,382.056,385.645,400,368,400Zm35.948-58.906a26.029,26.029,0,0,1-24-.051A61.688,61.688,0,0,0,392,304c0-1.059-.035-2.119-.086-3.177a44.869,44.869,0,0,0,8.035-4.323A42.514,42.514,0,0,0,424,304C424,320.352,416.129,334.912,403.948,341.094ZM456,144c17.645,0,32,17.944,32,40s-14.355,40-32,40a27.44,27.44,0,0,1-17.513-6.573,63.483,63.483,0,0,0,0-66.858A27.421,27.421,0,0,1,456,144Zm-.655,95.981A49.545,49.545,0,0,1,456,248c0,22.056-14.355,40-32,40a26.264,26.264,0,0,1-12.048-2.954A61.34,61.34,0,0,0,424,248a64.94,64.94,0,0,0-1.626-14.477,47.576,47.576,0,0,0,5.581-4.043A43.276,43.276,0,0,0,455.345,239.981ZM432.686,87.543h.03c.458,9.681-.553,29.091-13.379,45.219A41.993,41.993,0,0,0,400,128a43.189,43.189,0,0,0-28.046,10.52,47.627,47.627,0,0,0-3.845-2.912C391,97.068,414.79,87.543,432.686,87.543ZM344,144c17.645,0,32,17.944,32,40s-14.355,40-32,40-32-17.944-32-40S326.355,144,344,144ZM255.312,87.542h.01c17.916,0,41.7,9.539,64.572,48.063a47.945,47.945,0,0,0-3.848,2.915A43.239,43.239,0,0,0,288,128a41.985,41.985,0,0,0-19.338,4.763C255.936,116.717,254.888,97.247,255.312,87.542Zm4.734,141.939a47.756,47.756,0,0,0,5.58,4.042A64.953,64.953,0,0,0,264,248a63.944,63.944,0,0,0,4.648,24.07A87.46,87.46,0,0,0,242.2,277.2c-6.444-7.534-10.2-18.1-10.2-29.2a49.545,49.545,0,0,1,.655-8.019A43.226,43.226,0,0,0,260.046,229.481ZM232,144a27.438,27.438,0,0,1,17.513,6.574,63.482,63.482,0,0,0,0,66.857A27.421,27.421,0,0,1,232,224c-17.645,0-32-17.944-32-40S214.355,144,232,144Zm-96,32a112.31,112.31,0,0,1,48.061,10.822c1,23.5,14.484,43.211,32.847,50.326A65.621,65.621,0,0,0,216,248a61.394,61.394,0,0,0,11.341,36.2,87.966,87.966,0,0,0-39.076,102.865A112,112,0,1,1,136,176Z"></path><path d="M62.4,271.839c1.423.3,34.932,7.629,41.752,41.73a8,8,0,0,0,15.69,0c6.812-34.064,40.256-41.419,41.748-41.729a8,8,0,0,0,0-15.679c-1.423-.295-34.932-7.629-41.752-41.73a8,8,0,0,0-15.69,0c-6.82,34.1-40.329,41.435-41.724,41.724a8,8,0,0,0-.028,15.684ZM112,238.6A69.064,69.064,0,0,0,138.372,264,69.064,69.064,0,0,0,112,289.4,69.064,69.064,0,0,0,85.628,264,69.064,69.064,0,0,0,112,238.6Z"></path><path d="M288,320a24,24,0,1,0,24,24A24.027,24.027,0,0,0,288,320Zm0,32a8,8,0,1,1,8-8A8.009,8.009,0,0,1,288,352Z"></path></svg>